<svg xmlns="http://www.w3.org/2000/svg" viewBox="0 0 147.39 140.46"><defs><style>.cls-1{fill:#ff5e3a;}</style></defs><title>자산 3</title><g id="레이어_2" data-name="레이어 2"><g id="레이어_1-2" data-name="레이어 1"><polygon class="cls-1" points="73.69 114.83 29.67 137.98 38.08 88.96 2.46 54.24 51.68 47.09 73.69 2.49 95.71 47.09 144.93 54.24 109.31 88.96 117.72 137.98 73.69 114.83"/><path class="cls-1" d="M72.43,112.67l-44,23.14,3.67,2.82,7.53-43.92a30.78,30.78,0,0,0,.87-5.1c0-2.23-1.21-3-2.72-4.45L19.55,67.41,4.23,52.47l-1.1,4.18,43.78-6.36c1.59-.23,3.94-.13,5.43-.79,1.67-.73,2.14-2.43,2.9-4L66.38,22.94,75.85,3.75H71.54L91.11,43.42c.73,1.48,1.35,3.65,2.43,4.92,1.23,1.46,2.83,1.35,4.62,1.61l24.92,3.62,21.17,3.08-1.1-4.18L111.25,83.58c-1.12,1.09-2.86,2.28-3.7,3.61-1.09,1.71-.48,3.39-.15,5.29l4.3,25.08,3.62,21.09,3.67-2.82L75,112.67c-2.85-1.5-5.38,2.82-2.52,4.32l44,23.14a2.53,2.53,0,0,0,3.67-2.82l-8.41-49-.64,2.43L146.69,56c1.23-1.19.81-3.9-1.1-4.18l-42.78-6.22c-.64-.09-5.85-1.39-6.27-.91.65-.73,1.21,2.26,1,.44a11.68,11.68,0,0,0-1.41-2.87L84.89,19.53l-9-18.31a2.52,2.52,0,0,0-4.32,0L52.4,40c-.29.59-3.13,5.12-2.81,5.68-.53-.93,2.44-.49.66-.89-.84-.19-2.31.34-3.16.46L22,48.89,1.8,51.83c-1.91.28-2.33,3-1.1,4.18L36.31,90.72l-.64-2.43-8.41,49a2.54,2.54,0,0,0,3.67,2.82L75,117C77.81,115.49,75.28,111.18,72.43,112.67Z"/></g></g></svg>